<svg xmlns="http://www.w3.org/2000/svg" version="1.0" width="990.000000pt" height="1193.000000pt" viewBox="0 0 990.000000 1193.000000" preserveAspectRatio="xMidYMid meet">

<g transform="translate(0.000000,1193.000000) scale(0.100000,-0.100000)" fill="#000000" stroke="none">
<path d="M1090 11904 c-184 -17 -321 -54 -456 -122 -322 -163 -546 -459 -615 -815 -19 -95 -19 -218 -19 -5010 0 -5369 -4 -4987 59 -5174 57 -173 147 -317 275 -446 143 -144 319 -247 521 -304 l100 -28 4205 0 4205 0 70 22 c197 62 365 228 432 426 l28 82 0 5415 0 5415 -28 82 c-85 247 -299 420 -559 453 -56 7 -1382 9 -4133 8 -2227 0 -4066 -3 -4085 -4z m790 -5954 l0 -5580 -412 0 c-453 0 -486 4 -621 60 -206 86 -365 260 -440 482 l-32 93 -3 4900 c-2 3434 1 4921 8 4970 25 165 100 307 224 430 86 84 156 131 257 172 119 48 156 51 602 52 l417 1 0 -5580z m7478 5557 c55 -30 112 -88 140 -141 l27 -51 0 -5365 0 -5365 -27 -51 c-15 -28 -48 -70 -73 -92 -90 -79 271 -72 -3652 -72 l-3513 0 0 5580 0 5580 3533 -2 c3384 -3 3533 -4 3565 -21z"/>
<path d="M3415 10700 c-126 -26 -229 -83 -331 -184 -90 -91 -140 -171 -176 -286 l-23 -75 0 -910 c0 -853 1 -914 18 -975 53 -186 180 -341 347 -423 169 -83 -51 -77 2641 -77 2682 0 2481 -6 2639 72 119 59 240 178 298 295 75 152 73 115 70 1138 l-3 910 -27 73 c-38 105 -83 175 -163 256 -78 79 -166 135 -265 169 l-65 22 -2460 1 c-1353 1 -2478 -2 -2500 -6z m4921 -377 c33 -11 67 -34 106 -73 93 -94 88 -33 88 -1011 0 -825 -1 -850 -20 -902 -27 -72 -76 -127 -146 -162 l-59 -30 -2410 0 -2410 0 -52 24 c-61 27 -126 93 -156 159 l-22 47 0 860 c0 710 2 867 14 900 31 90 99 159 188 191 32 11 445 13 2434 14 2215 0 2399 -1 2445 -17z"/>
</g>
</svg>